<?xml version="1.0" standalone="no"?>
<!DOCTYPE svg PUBLIC "-//W3C//DTD SVG 20010904//EN"
 "http://www.w3.org/TR/2001/REC-SVG-20010904/DTD/svg10.dtd">
<svg version="1.0" xmlns="http://www.w3.org/2000/svg"
 width="1034.000000pt" height="1034.000000pt" viewBox="0 0 1034.000000 1034.000000"
 preserveAspectRatio="xMidYMid meet">
<metadata>
Created by potrace 1.14, written by Peter Selinger 2001-2017
</metadata>
<g transform="translate(0.000000,1034.000000) scale(0.100000,-0.100000)"
fill="#000000" stroke="none">
<path d="M2820 6815 l0 -235 -235 0 -235 0 0 -235 0 -235 235 0 235 0 0 235 0
235 235 0 235 0 0 235 0 235 -235 0 -235 0 0 -235z"/>
<path d="M7050 6815 l0 -235 235 0 235 0 0 -235 0 -235 235 0 235 0 0 235 0
235 -235 0 -235 0 0 235 0 235 -235 0 -235 0 0 -235z"/>
<path d="M1063 4693 c64 -2 170 -2 235 0 64 1 11 3 -118 3 -129 0 -182 -2
-117 -3z"/>
<path d="M5640 3995 l0 -235 -705 0 -705 0 0 -235 0 -235 705 0 705 0 0 235 0
235 235 0 235 0 0 235 0 235 -235 0 -235 0 0 -235z"/>
<path d="M9048 2823 c68 -2 176 -2 240 0 64 1 9 3 -123 3 -132 0 -185 -2 -117
-3z"/>
<path d="M1073 2353 c65 -2 168 -2 230 0 62 1 9 3 -118 3 -126 0 -177 -2 -112
-3z"/>
<path d="M4230 2115 l0 -235 -940 0 -940 0 0 -235 0 -235 -235 0 -235 0 0
-705 0 -705 3290 0 3290 0 0 705 0 705 -235 0 -235 0 0 235 0 235 -940 0 -940
0 0 235 0 235 -940 0 -940 0 0 -235z"/>
</g>
</svg>
